<svg xmlns="http://www.w3.org/2000/svg" width="900" height="250" viewBox="0 0 900 250" role="img" aria-label="Active days, a monthly skyline of active days, and a rolling 30-day pulse of active-day rate through the year — now 26 of 30, peaked at 30 of 30 in Aug"><title>Active days, a monthly skyline of active days, and a rolling 30-day pulse of active-day rate through the year — now 26 of 30, peaked at 30 of 30 in Aug</title><defs>
<pattern id="tone" width="5" height="5" patternUnits="userSpaceOnUse" patternTransform="rotate(30)"><circle cx="2.5" cy="2.5" r="1" fill="#0d0d0d" fill-opacity=".22"/></pattern>
<pattern id="nightTone" width="5" height="5" patternUnits="userSpaceOnUse" patternTransform="rotate(30)"><circle cx="2.5" cy="2.5" r="1" fill="#fff" fill-opacity=".13"/></pattern>
</defs><rect x="1.5" y="1.5" width="262" height="247" fill="#fbfbf8" stroke="#0d0d0d" stroke-width="3"/><polygon points="263,248 120,248 263,160" fill="url(#tone)" opacity=".5"/><line x1="132" y1="10" x2="132" y2="240" stroke="#0d0d0d" stroke-width="1.5"/><line x1="10" y1="125.0" x2="255" y2="125.0" stroke="#0d0d0d" stroke-width="1.5"/><text x="18" y="72.0" font-family="Impact,'Arial Black','Helvetica Neue',sans-serif" font-size="50" font-style="italic" fill="#d6d6d1">154</text><text x="16" y="69.0" font-family="Impact,'Arial Black','Helvetica Neue',sans-serif" font-size="50" font-style="italic" fill="#0d0d0d">154</text><text x="16" y="92.0" font-family="SFMono-Regular,Consolas,'Liberation Mono',monospace" font-size="10.5" font-weight="700" letter-spacing="1.5" fill="#0d0d0d">ACTIVE DAYS</text><text x="16" y="108.0" font-family="'Segoe UI','Helvetica Neue',Arial,sans-serif" font-size="10.5" fill="#8c8c88">last 12 months</text><text x="140" y="72.0" font-family="Impact,'Arial Black','Helvetica Neue',sans-serif" font-size="50" font-style="italic" fill="#d6d6d1">44</text><text x="138" y="69.0" font-family="Impact,'Arial Black','Helvetica Neue',sans-serif" font-size="50" font-style="italic" fill="#0d0d0d">44</text><text x="138" y="92.0" font-family="SFMono-Regular,Consolas,'Liberation Mono',monospace" font-size="10.5" font-weight="700" letter-spacing="1.5" fill="#0d0d0d">LONGEST STREAK</text><text x="138" y="108.0" font-family="'Segoe UI','Helvetica Neue',Arial,sans-serif" font-size="10.5" fill="#8c8c88">days, ended 10 Aug</text><text x="18" y="195.0" font-family="Impact,'Arial Black','Helvetica Neue',sans-serif" font-size="50" font-style="italic" fill="#d6d6d1">11</text><text x="16" y="192.0" font-family="Impact,'Arial Black','Helvetica Neue',sans-serif" font-size="50" font-style="italic" fill="#0d0d0d">11</text><text x="16" y="215.0" font-family="SFMono-Regular,Consolas,'Liberation Mono',monospace" font-size="10.5" font-weight="700" letter-spacing="1.5" fill="#0d0d0d">CURRENT STREAK</text><text x="16" y="231.0" font-family="'Segoe UI','Helvetica Neue',Arial,sans-serif" font-size="10.5" fill="#8c8c88">days in a row</text><text x="140" y="195.0" font-family="Impact,'Arial Black','Helvetica Neue',sans-serif" font-size="50" font-style="italic" fill="#d6d6d1">36</text><text x="138" y="192.0" font-family="Impact,'Arial Black','Helvetica Neue',sans-serif" font-size="50" font-style="italic" fill="#0d0d0d">36</text><text x="138" y="215.0" font-family="SFMono-Regular,Consolas,'Liberation Mono',monospace" font-size="10.5" font-weight="700" letter-spacing="1.5" fill="#0d0d0d">ACTIVE WEEKS</text><text x="138" y="231.0" font-family="'Segoe UI','Helvetica Neue',Arial,sans-serif" font-size="10.5" fill="#8c8c88">of 54</text><rect x="271" y="1.5" width="318" height="247" fill="#242424" stroke="#0d0d0d" stroke-width="3"/><rect x="271" y="1.5" width="318" height="247" fill="url(#nightTone)"/><text x="285" y="24" font-family="SFMono-Regular,Consolas,'Liberation Mono',monospace" font-size="10.5" letter-spacing="1.5" fill="#fff">ACTIVE DAYS / MONTH</text><rect x="283" y="212" width="20" height="10" fill="#000" stroke="#fff" stroke-width="1.5"/><text x="293.0" y="206" text-anchor="middle" font-family="Impact,'Arial Black','Helvetica Neue',sans-serif" font-size="12" font-style="italic" fill="#fff">0</text><text x="293.0" y="237" text-anchor="middle" font-family="SFMono-Regular,Consolas,'Liberation Mono',monospace" font-size="9" fill="#bbb">Oct</text><rect x="308" y="212" width="20" height="10" fill="#000" stroke="#fff" stroke-width="1.5"/><text x="318.0" y="206" text-anchor="middle" font-family="Impact,'Arial Black','Helvetica Neue',sans-serif" font-size="12" font-style="italic" fill="#fff">0</text><text x="318.0" y="237" text-anchor="middle" font-family="SFMono-Regular,Consolas,'Liberation Mono',monospace" font-size="9" fill="#bbb">Nov</text><rect x="333" y="212" width="20" height="10" fill="#000" stroke="#fff" stroke-width="1.5"/><text x="343.0" y="206" text-anchor="middle" font-family="Impact,'Arial Black','Helvetica Neue',sans-serif" font-size="12" font-style="italic" fill="#fff">1</text><text x="343.0" y="237" text-anchor="middle" font-family="SFMono-Regular,Consolas,'Liberation Mono',monospace" font-size="9" fill="#bbb">Dec</text><rect x="358" y="212" width="20" height="10" fill="#000" stroke="#fff" stroke-width="1.5"/><text x="368.0" y="206" text-anchor="middle" font-family="Impact,'Arial Black','Helvetica Neue',sans-serif" font-size="12" font-style="italic" fill="#fff">2</text><text x="368.0" y="237" text-anchor="middle" font-family="SFMono-Regular,Consolas,'Liberation Mono',monospace" font-size="9" fill="#bbb">Jan</text><rect x="383" y="193" width="20" height="29" fill="#000" stroke="#fff" stroke-width="1.5"/><rect x="387" y="199" width="4" height="5.5" fill="#fff" opacity=".9"/><text x="393.0" y="187" text-anchor="middle" font-family="Impact,'Arial Black','Helvetica Neue',sans-serif" font-size="12" font-style="italic" fill="#fff">6</text><text x="393.0" y="237" text-anchor="middle" font-family="SFMono-Regular,Consolas,'Liberation Mono',monospace" font-size="9" fill="#bbb">Feb</text><rect x="408" y="178" width="20" height="44" fill="#000" stroke="#fff" stroke-width="1.5"/><rect x="412" y="206" width="4" height="5.5" fill="#fff" opacity=".9"/><rect x="420" y="184" width="4" height="5.5" fill="#fff" opacity=".9"/><rect x="420" y="206" width="4" height="5.5" fill="#fff" opacity=".9"/><text x="418.0" y="172" text-anchor="middle" font-family="Impact,'Arial Black','Helvetica Neue',sans-serif" font-size="12" font-style="italic" fill="#fff">9</text><text x="418.0" y="237" text-anchor="middle" font-family="SFMono-Regular,Consolas,'Liberation Mono',monospace" font-size="9" fill="#bbb">Mar</text><rect x="433" y="135" width="20" height="87" fill="#000" stroke="#fff" stroke-width="1.5"/><rect x="437" y="152" width="4" height="5.5" fill="#fff" opacity=".9"/><rect x="437" y="163" width="4" height="5.5" fill="#fff" opacity=".9"/><rect x="437" y="174" width="4" height="5.5" fill="#fff" opacity=".9"/><rect x="437" y="185" width="4" height="5.5" fill="#fff" opacity=".9"/><rect x="437" y="196" width="4" height="5.5" fill="#fff" opacity=".9"/><rect x="437" y="207" width="4" height="5.5" fill="#fff" opacity=".9"/><rect x="445" y="141" width="4" height="5.5" fill="#fff" opacity=".9"/><rect x="445" y="152" width="4" height="5.5" fill="#fff" opacity=".9"/><rect x="445" y="185" width="4" height="5.5" fill="#fff" opacity=".9"/><rect x="445" y="207" width="4" height="5.5" fill="#fff" opacity=".9"/><text x="443.0" y="129" text-anchor="middle" font-family="Impact,'Arial Black','Helvetica Neue',sans-serif" font-size="12" font-style="italic" fill="#fff">18</text><text x="443.0" y="237" text-anchor="middle" font-family="SFMono-Regular,Consolas,'Liberation Mono',monospace" font-size="9" fill="#bbb">Apr</text><rect x="458" y="164" width="20" height="58" fill="#000" stroke="#fff" stroke-width="1.5"/><rect x="462" y="170" width="4" height="5.5" fill="#fff" opacity=".9"/><rect x="462" y="181" width="4" height="5.5" fill="#fff" opacity=".9"/><rect x="462" y="192" width="4" height="5.5" fill="#fff" opacity=".9"/><rect x="462" y="214" width="4" height="5.5" fill="#fff" opacity=".9"/><rect x="470" y="170" width="4" height="5.5" fill="#fff" opacity=".9"/><rect x="470" y="203" width="4" height="5.5" fill="#fff" opacity=".9"/><text x="468.0" y="158" text-anchor="middle" font-family="Impact,'Arial Black','Helvetica Neue',sans-serif" font-size="12" font-style="italic" fill="#fff">12</text><text x="468.0" y="237" text-anchor="middle" font-family="SFMono-Regular,Consolas,'Liberation Mono',monospace" font-size="9" fill="#bbb">May</text><rect x="483" y="111" width="20" height="111" fill="#000" stroke="#fff" stroke-width="1.5"/><rect x="487" y="117" width="4" height="5.5" fill="#fff" opacity=".9"/><rect x="487" y="128" width="4" height="5.5" fill="#fff" opacity=".9"/><rect x="487" y="139" width="4" height="5.5" fill="#fff" opacity=".9"/><rect x="487" y="161" width="4" height="5.5" fill="#fff" opacity=".9"/><rect x="487" y="194" width="4" height="5.5" fill="#fff" opacity=".9"/><rect x="487" y="205" width="4" height="5.5" fill="#fff" opacity=".9"/><rect x="487" y="216" width="4" height="5.5" fill="#fff" opacity=".9"/><rect x="495" y="117" width="4" height="5.5" fill="#fff" opacity=".9"/><rect x="495" y="128" width="4" height="5.5" fill="#fff" opacity=".9"/><rect x="495" y="139" width="4" height="5.5" fill="#fff" opacity=".9"/><rect x="495" y="150" width="4" height="5.5" fill="#fff" opacity=".9"/><rect x="495" y="161" width="4" height="5.5" fill="#fff" opacity=".9"/><rect x="495" y="172" width="4" height="5.5" fill="#fff" opacity=".9"/><rect x="495" y="183" width="4" height="5.5" fill="#fff" opacity=".9"/><rect x="495" y="194" width="4" height="5.5" fill="#fff" opacity=".9"/><rect x="495" y="216" width="4" height="5.5" fill="#fff" opacity=".9"/><text x="493.0" y="105" text-anchor="middle" font-family="Impact,'Arial Black','Helvetica Neue',sans-serif" font-size="12" font-style="italic" fill="#fff">23</text><text x="493.0" y="237" text-anchor="middle" font-family="SFMono-Regular,Consolas,'Liberation Mono',monospace" font-size="9" fill="#bbb">Jun</text><rect x="508" y="72" width="20" height="150" fill="#000" stroke="#fff" stroke-width="1.5"/><rect x="512" y="78" width="4" height="5.5" fill="#fff" opacity=".9"/><rect x="512" y="89" width="4" height="5.5" fill="#fff" opacity=".9"/><rect x="512" y="100" width="4" height="5.5" fill="#fff" opacity=".9"/><rect x="512" y="111" width="4" height="5.5" fill="#fff" opacity=".9"/><rect x="512" y="133" width="4" height="5.5" fill="#fff" opacity=".9"/><rect x="512" y="166" width="4" height="5.5" fill="#fff" opacity=".9"/><rect x="512" y="188" width="4" height="5.5" fill="#fff" opacity=".9"/><rect x="512" y="199" width="4" height="5.5" fill="#fff" opacity=".9"/><rect x="512" y="210" width="4" height="5.5" fill="#fff" opacity=".9"/><rect x="520" y="78" width="4" height="5.5" fill="#fff" opacity=".9"/><rect x="520" y="89" width="4" height="5.5" fill="#fff" opacity=".9"/><rect x="520" y="111" width="4" height="5.5" fill="#fff" opacity=".9"/><rect x="520" y="155" width="4" height="5.5" fill="#fff" opacity=".9"/><rect x="520" y="166" width="4" height="5.5" fill="#fff" opacity=".9"/><rect x="520" y="177" width="4" height="5.5" fill="#fff" opacity=".9"/><rect x="520" y="199" width="4" height="5.5" fill="#fff" opacity=".9"/><text x="518.0" y="66" text-anchor="middle" font-family="Impact,'Arial Black','Helvetica Neue',sans-serif" font-size="12" font-style="italic" fill="#fff">31</text><text x="518.0" y="237" text-anchor="middle" font-family="SFMono-Regular,Consolas,'Liberation Mono',monospace" font-size="9" fill="#bbb">Jul</text><rect x="533" y="91" width="20" height="131" fill="#000" stroke="#fff" stroke-width="1.5"/><rect x="537" y="119" width="4" height="5.5" fill="#fff" opacity=".9"/><rect x="537" y="141" width="4" height="5.5" fill="#fff" opacity=".9"/><rect x="537" y="152" width="4" height="5.5" fill="#fff" opacity=".9"/><rect x="537" y="163" width="4" height="5.5" fill="#fff" opacity=".9"/><rect x="537" y="185" width="4" height="5.5" fill="#fff" opacity=".9"/><rect x="537" y="207" width="4" height="5.5" fill="#fff" opacity=".9"/><rect x="545" y="97" width="4" height="5.5" fill="#fff" opacity=".9"/><rect x="545" y="108" width="4" height="5.5" fill="#fff" opacity=".9"/><rect x="545" y="119" width="4" height="5.5" fill="#fff" opacity=".9"/><rect x="545" y="130" width="4" height="5.5" fill="#fff" opacity=".9"/><rect x="545" y="141" width="4" height="5.5" fill="#fff" opacity=".9"/><rect x="545" y="152" width="4" height="5.5" fill="#fff" opacity=".9"/><rect x="545" y="174" width="4" height="5.5" fill="#fff" opacity=".9"/><rect x="545" y="185" width="4" height="5.5" fill="#fff" opacity=".9"/><rect x="545" y="207" width="4" height="5.5" fill="#fff" opacity=".9"/><text x="543.0" y="85" text-anchor="middle" font-family="Impact,'Arial Black','Helvetica Neue',sans-serif" font-size="12" font-style="italic" fill="#fff">27</text><text x="543.0" y="237" text-anchor="middle" font-family="SFMono-Regular,Consolas,'Liberation Mono',monospace" font-size="9" fill="#bbb">Aug</text><rect x="558" y="101" width="20" height="121" fill="#000" stroke="#fff" stroke-width="1.5" stroke-dasharray="3 2"/><rect x="562" y="107" width="4" height="5.5" fill="#fff" opacity=".9"/><rect x="562" y="118" width="4" height="5.5" fill="#fff" opacity=".9"/><rect x="562" y="129" width="4" height="5.5" fill="#fff" opacity=".9"/><rect x="562" y="151" width="4" height="5.5" fill="#fff" opacity=".9"/><rect x="562" y="162" width="4" height="5.5" fill="#fff" opacity=".9"/><rect x="562" y="173" width="4" height="5.5" fill="#fff" opacity=".9"/><rect x="562" y="195" width="4" height="5.5" fill="#fff" opacity=".9"/><rect x="562" y="206" width="4" height="5.5" fill="#fff" opacity=".9"/><rect x="570" y="118" width="4" height="5.5" fill="#fff" opacity=".9"/><rect x="570" y="151" width="4" height="5.5" fill="#fff" opacity=".9"/><rect x="570" y="173" width="4" height="5.5" fill="#fff" opacity=".9"/><rect x="570" y="184" width="4" height="5.5" fill="#fff" opacity=".9"/><rect x="570" y="195" width="4" height="5.5" fill="#fff" opacity=".9"/><text x="568.0" y="95" text-anchor="middle" font-family="Impact,'Arial Black','Helvetica Neue',sans-serif" font-size="12" font-style="italic" fill="#fff">25</text><text x="568.0" y="237" text-anchor="middle" font-family="SFMono-Regular,Consolas,'Liberation Mono',monospace" font-size="9" fill="#bbb">Sep</text><line x1="279" y1="222" x2="581" y2="222" stroke="#fff" stroke-opacity=".5"/><rect x="597" y="1.5" width="301.5" height="247" fill="#242424" stroke="#0d0d0d" stroke-width="3"/><rect x="597" y="1.5" width="301.5" height="247" fill="url(#nightTone)"/><text x="611" y="24" font-family="SFMono-Regular,Consolas,'Liberation Mono',monospace" font-size="10.5" letter-spacing="1.5" fill="#fff">PULSE OF THE YEAR</text><line x1="607" y1="205" x2="892" y2="205" stroke="#fff" stroke-opacity=".5"/><line x1="607" y1="124.5" x2="892" y2="124.5" stroke="#fff" stroke-opacity=".12"/><polygon points="613,205 613.0,205.0 613.7,205.0 614.5,205.0 615.2,205.0 616.0,205.0 616.7,205.0 617.5,205.0 618.2,205.0 619.0,205.0 619.7,205.0 620.5,205.0 621.2,205.0 622.0,205.0 622.7,205.0 623.4,205.0 624.2,205.0 624.9,205.0 625.7,205.0 626.4,205.0 627.2,205.0 627.9,205.0 628.7,205.0 629.4,205.0 630.2,205.0 630.9,205.0 631.6,205.0 632.4,205.0 633.1,205.0 633.9,205.0 634.6,205.0 635.4,205.0 636.1,205.0 636.9,205.0 637.6,205.0 638.4,205.0 639.1,205.0 639.9,205.0 640.6,205.0 641.3,205.0 642.1,205.0 642.8,205.0 643.6,205.0 644.3,205.0 645.1,205.0 645.8,205.0 646.6,205.0 647.3,205.0 648.1,205.0 648.8,205.0 649.5,205.0 650.3,205.0 651.0,205.0 651.8,205.0 652.5,205.0 653.3,205.0 654.0,205.0 654.8,205.0 655.5,205.0 656.3,205.0 657.0,205.0 657.8,205.0 658.5,205.0 659.2,205.0 660.0,205.0 660.7,205.0 661.5,205.0 662.2,205.0 663.0,205.0 663.7,205.0 664.5,205.0 665.2,205.0 666.0,205.0 666.7,205.0 667.5,205.0 668.2,205.0 668.9,205.0 669.7,205.0 670.4,205.0 671.2,205.0 671.9,205.0 672.7,205.0 673.4,205.0 674.2,205.0 674.9,205.0 675.7,205.0 676.4,205.0 677.1,205.0 677.9,200.3 678.6,200.3 679.4,200.3 680.1,200.3 680.9,200.3 681.6,200.3 682.4,200.3 683.1,200.3 683.9,200.3 684.6,200.3 685.4,200.3 686.1,195.7 686.8,195.7 687.6,195.7 688.3,195.7 689.1,195.7 689.8,195.7 690.6,195.7 691.3,195.7 692.1,195.7 692.8,195.7 693.6,195.7 694.3,195.7 695.0,195.7 695.8,195.7 696.5,195.7 697.3,191.0 698.0,191.0 698.8,191.0 699.5,191.0 700.3,195.7 701.0,195.7 701.8,195.7 702.5,195.7 703.3,195.7 704.0,195.7 704.7,195.7 705.5,195.7 706.2,195.7 707.0,195.7 707.7,195.7 708.5,200.3 709.2,195.7 710.0,195.7 710.7,191.0 711.5,186.3 712.2,181.7 713.0,181.7 713.7,181.7 714.4,181.7 715.2,181.7 715.9,181.7 716.7,177.0 717.4,177.0 718.2,177.0 718.9,177.0 719.7,181.7 720.4,177.0 721.2,177.0 721.9,177.0 722.6,177.0 723.4,177.0 724.1,177.0 724.9,177.0 725.6,177.0 726.4,177.0 727.1,177.0 727.9,177.0 728.6,177.0 729.4,177.0 730.1,177.0 730.9,177.0 731.6,177.0 732.3,172.3 733.1,177.0 733.8,181.7 734.6,181.7 735.3,177.0 736.1,177.0 736.8,177.0 737.6,177.0 738.3,172.3 739.1,177.0 739.8,172.3 740.5,172.3 741.3,172.3 742.0,172.3 742.8,177.0 743.5,177.0 744.3,177.0 745.0,177.0 745.8,172.3 746.5,172.3 747.3,172.3 748.0,172.3 748.8,172.3 749.5,167.7 750.2,163.0 751.0,163.0 751.7,158.3 752.5,153.7 753.2,149.0 754.0,149.0 754.7,149.0 755.5,144.3 756.2,139.7 757.0,144.3 757.7,149.0 758.5,144.3 759.2,139.7 759.9,139.7 760.7,139.7 761.4,135.0 762.2,135.0 762.9,130.3 763.7,130.3 764.4,125.7 765.2,125.7 765.9,125.7 766.7,121.0 767.4,116.3 768.1,116.3 768.9,116.3 769.6,116.3 770.4,111.7 771.1,111.7 771.9,116.3 772.6,121.0 773.4,121.0 774.1,125.7 774.9,130.3 775.6,135.0 776.4,139.7 777.1,144.3 777.8,149.0 778.6,153.7 779.3,153.7 780.1,153.7 780.8,158.3 781.6,163.0 782.3,163.0 783.1,163.0 783.8,167.7 784.6,172.3 785.3,177.0 786.0,177.0 786.8,181.7 787.5,177.0 788.3,177.0 789.0,177.0 789.8,177.0 790.5,177.0 791.3,172.3 792.0,167.7 792.8,167.7 793.5,163.0 794.3,158.3 795.0,153.7 795.7,149.0 796.5,144.3 797.2,139.7 798.0,135.0 798.7,130.3 799.5,125.7 800.2,121.0 801.0,116.3 801.7,111.7 802.5,107.0 803.2,102.3 804.0,102.3 804.7,97.7 805.4,97.7 806.2,93.0 806.9,88.3 807.7,83.7 808.4,83.7 809.2,83.7 809.9,83.7 810.7,79.0 811.4,79.0 812.2,79.0 812.9,83.7 813.6,83.7 814.4,88.3 815.1,93.0 815.9,97.7 816.6,97.7 817.4,97.7 818.1,97.7 818.9,97.7 819.6,97.7 820.4,97.7 821.1,97.7 821.9,97.7 822.6,97.7 823.3,97.7 824.1,97.7 824.8,97.7 825.6,97.7 826.3,93.0 827.1,93.0 827.8,93.0 828.6,93.0 829.3,93.0 830.1,93.0 830.8,88.3 831.5,83.7 832.3,83.7 833.0,83.7 833.8,83.7 834.5,83.7 835.3,79.0 836.0,79.0 836.8,74.3 837.5,69.7 838.3,65.0 839.0,65.0 839.8,65.0 840.5,65.0 841.2,65.0 842.0,65.0 842.7,65.0 843.5,65.0 844.2,65.0 845.0,65.0 845.7,65.0 846.5,65.0 847.2,65.0 848.0,65.0 848.7,65.0 849.5,69.7 850.2,69.7 850.9,69.7 851.7,74.3 852.4,74.3 853.2,74.3 853.9,74.3 854.7,74.3 855.4,74.3 856.2,74.3 856.9,74.3 857.7,79.0 858.4,79.0 859.1,79.0 859.9,79.0 860.6,79.0 861.4,79.0 862.1,79.0 862.9,79.0 863.6,83.7 864.4,83.7 865.1,83.7 865.9,83.7 866.6,88.3 867.4,88.3 868.1,88.3 868.8,88.3 869.6,93.0 870.3,93.0 871.1,93.0 871.8,88.3 872.6,88.3 873.3,88.3 874.1,83.7 874.8,83.7 875.6,83.7 876.3,83.7 877.0,88.3 877.8,88.3 878.5,88.3 879.3,88.3 880.0,83.7 880.8,83.7 881.5,83.7 882.3,83.7 883.0,83.7 883.8,83.7 884.5,83.7 885.3,83.7 886.0,83.7 886,205" fill="#fff" fill-opacity=".08"/><polyline points="613.0,205.0 613.7,205.0 614.5,205.0 615.2,205.0 616.0,205.0 616.7,205.0 617.5,205.0 618.2,205.0 619.0,205.0 619.7,205.0 620.5,205.0 621.2,205.0 622.0,205.0 622.7,205.0 623.4,205.0 624.2,205.0 624.9,205.0 625.7,205.0 626.4,205.0 627.2,205.0 627.9,205.0 628.7,205.0 629.4,205.0 630.2,205.0 630.9,205.0 631.6,205.0 632.4,205.0 633.1,205.0 633.9,205.0 634.6,205.0 635.4,205.0 636.1,205.0 636.9,205.0 637.6,205.0 638.4,205.0 639.1,205.0 639.9,205.0 640.6,205.0 641.3,205.0 642.1,205.0 642.8,205.0 643.6,205.0 644.3,205.0 645.1,205.0 645.8,205.0 646.6,205.0 647.3,205.0 648.1,205.0 648.8,205.0 649.5,205.0 650.3,205.0 651.0,205.0 651.8,205.0 652.5,205.0 653.3,205.0 654.0,205.0 654.8,205.0 655.5,205.0 656.3,205.0 657.0,205.0 657.8,205.0 658.5,205.0 659.2,205.0 660.0,205.0 660.7,205.0 661.5,205.0 662.2,205.0 663.0,205.0 663.7,205.0 664.5,205.0 665.2,205.0 666.0,205.0 666.7,205.0 667.5,205.0 668.2,205.0 668.9,205.0 669.7,205.0 670.4,205.0 671.2,205.0 671.9,205.0 672.7,205.0 673.4,205.0 674.2,205.0 674.9,205.0 675.7,205.0 676.4,205.0 677.1,205.0 677.9,200.3 678.6,200.3 679.4,200.3 680.1,200.3 680.9,200.3 681.6,200.3 682.4,200.3 683.1,200.3 683.9,200.3 684.6,200.3 685.4,200.3 686.1,195.7 686.8,195.7 687.6,195.7 688.3,195.7 689.1,195.7 689.8,195.7 690.6,195.7 691.3,195.7 692.1,195.7 692.8,195.7 693.6,195.7 694.3,195.7 695.0,195.7 695.8,195.7 696.5,195.7 697.3,191.0 698.0,191.0 698.8,191.0 699.5,191.0 700.3,195.7 701.0,195.7 701.8,195.7 702.5,195.7 703.3,195.7 704.0,195.7 704.7,195.7 705.5,195.7 706.2,195.7 707.0,195.7 707.7,195.7 708.5,200.3 709.2,195.7 710.0,195.7 710.7,191.0 711.5,186.3 712.2,181.7 713.0,181.7 713.7,181.7 714.4,181.7 715.2,181.7 715.9,181.7 716.7,177.0 717.4,177.0 718.2,177.0 718.9,177.0 719.7,181.7 720.4,177.0 721.2,177.0 721.9,177.0 722.6,177.0 723.4,177.0 724.1,177.0 724.9,177.0 725.6,177.0 726.4,177.0 727.1,177.0 727.9,177.0 728.6,177.0 729.4,177.0 730.1,177.0 730.9,177.0 731.6,177.0 732.3,172.3 733.1,177.0 733.8,181.7 734.6,181.7 735.3,177.0 736.1,177.0 736.8,177.0 737.6,177.0 738.3,172.3 739.1,177.0 739.8,172.3 740.5,172.3 741.3,172.3 742.0,172.3 742.8,177.0 743.5,177.0 744.3,177.0 745.0,177.0 745.8,172.3 746.5,172.3 747.3,172.3 748.0,172.3 748.8,172.3 749.5,167.7 750.2,163.0 751.0,163.0 751.7,158.3 752.5,153.7 753.2,149.0 754.0,149.0 754.7,149.0 755.5,144.3 756.2,139.7 757.0,144.3 757.7,149.0 758.5,144.3 759.2,139.7 759.9,139.7 760.7,139.7 761.4,135.0 762.2,135.0 762.9,130.3 763.7,130.3 764.4,125.7 765.2,125.7 765.9,125.7 766.7,121.0 767.4,116.3 768.1,116.3 768.9,116.3 769.6,116.3 770.4,111.7 771.1,111.7 771.9,116.3 772.6,121.0 773.4,121.0 774.1,125.7 774.9,130.3 775.6,135.0 776.4,139.7 777.1,144.3 777.8,149.0 778.6,153.7 779.3,153.7 780.1,153.7 780.8,158.3 781.6,163.0 782.3,163.0 783.1,163.0 783.8,167.7 784.6,172.3 785.3,177.0 786.0,177.0 786.8,181.7 787.5,177.0 788.3,177.0 789.0,177.0 789.8,177.0 790.5,177.0 791.3,172.3 792.0,167.7 792.8,167.7 793.5,163.0 794.3,158.3 795.0,153.7 795.7,149.0 796.5,144.3 797.2,139.7 798.0,135.0 798.7,130.3 799.5,125.7 800.2,121.0 801.0,116.3 801.7,111.7 802.5,107.0 803.2,102.3 804.0,102.3 804.7,97.7 805.4,97.7 806.2,93.0 806.9,88.3 807.7,83.7 808.4,83.7 809.2,83.7 809.9,83.7 810.7,79.0 811.4,79.0 812.2,79.0 812.9,83.7 813.6,83.7 814.4,88.3 815.1,93.0 815.9,97.7 816.6,97.7 817.4,97.7 818.1,97.7 818.9,97.7 819.6,97.7 820.4,97.7 821.1,97.7 821.9,97.7 822.6,97.7 823.3,97.7 824.1,97.7 824.8,97.7 825.6,97.7 826.3,93.0 827.1,93.0 827.8,93.0 828.6,93.0 829.3,93.0 830.1,93.0 830.8,88.3 831.5,83.7 832.3,83.7 833.0,83.7 833.8,83.7 834.5,83.7 835.3,79.0 836.0,79.0 836.8,74.3 837.5,69.7 838.3,65.0 839.0,65.0 839.8,65.0 840.5,65.0 841.2,65.0 842.0,65.0 842.7,65.0 843.5,65.0 844.2,65.0 845.0,65.0 845.7,65.0 846.5,65.0 847.2,65.0 848.0,65.0 848.7,65.0 849.5,69.7 850.2,69.7 850.9,69.7 851.7,74.3 852.4,74.3 853.2,74.3 853.9,74.3 854.7,74.3 855.4,74.3 856.2,74.3 856.9,74.3 857.7,79.0 858.4,79.0 859.1,79.0 859.9,79.0 860.6,79.0 861.4,79.0 862.1,79.0 862.9,79.0 863.6,83.7 864.4,83.7 865.1,83.7 865.9,83.7 866.6,88.3 867.4,88.3 868.1,88.3 868.8,88.3 869.6,93.0 870.3,93.0 871.1,93.0 871.8,88.3 872.6,88.3 873.3,88.3 874.1,83.7 874.8,83.7 875.6,83.7 876.3,83.7 877.0,88.3 877.8,88.3 878.5,88.3 879.3,88.3 880.0,83.7 880.8,83.7 881.5,83.7 882.3,83.7 883.0,83.7 883.8,83.7 884.5,83.7 885.3,83.7 886.0,83.7" fill="none" stroke="#fff" stroke-width="1.6" stroke-linejoin="round" stroke-linecap="round"/><line x1="615.2" y1="205" x2="615.2" y2="209" stroke="#fff" stroke-opacity=".5"/><text x="615.2" y="220" text-anchor="middle" font-family="SFMono-Regular,Consolas,'Liberation Mono',monospace" font-size="9" fill="#bbb">Oct</text><line x1="638.4" y1="205" x2="638.4" y2="209" stroke="#fff" stroke-opacity=".5"/><text x="638.4" y="220" text-anchor="middle" font-family="SFMono-Regular,Consolas,'Liberation Mono',monospace" font-size="9" fill="#bbb">Nov</text><line x1="660.7" y1="205" x2="660.7" y2="209" stroke="#fff" stroke-opacity=".5"/><text x="660.7" y="220" text-anchor="middle" font-family="SFMono-Regular,Consolas,'Liberation Mono',monospace" font-size="9" fill="#bbb">Dec</text><line x1="683.9" y1="205" x2="683.9" y2="209" stroke="#fff" stroke-opacity=".5"/><text x="683.9" y="220" text-anchor="middle" font-family="SFMono-Regular,Consolas,'Liberation Mono',monospace" font-size="9" fill="#bbb">Jan</text><line x1="707.0" y1="205" x2="707.0" y2="209" stroke="#fff" stroke-opacity=".5"/><text x="707.0" y="220" text-anchor="middle" font-family="SFMono-Regular,Consolas,'Liberation Mono',monospace" font-size="9" fill="#bbb">Feb</text><line x1="727.9" y1="205" x2="727.9" y2="209" stroke="#fff" stroke-opacity=".5"/><text x="727.9" y="220" text-anchor="middle" font-family="SFMono-Regular,Consolas,'Liberation Mono',monospace" font-size="9" fill="#bbb">Mar</text><line x1="751.0" y1="205" x2="751.0" y2="209" stroke="#fff" stroke-opacity=".5"/><text x="751.0" y="220" text-anchor="middle" font-family="SFMono-Regular,Consolas,'Liberation Mono',monospace" font-size="9" fill="#bbb">Apr</text><line x1="773.4" y1="205" x2="773.4" y2="209" stroke="#fff" stroke-opacity=".5"/><text x="773.4" y="220" text-anchor="middle" font-family="SFMono-Regular,Consolas,'Liberation Mono',monospace" font-size="9" fill="#bbb">May</text><line x1="796.5" y1="205" x2="796.5" y2="209" stroke="#fff" stroke-opacity=".5"/><text x="796.5" y="220" text-anchor="middle" font-family="SFMono-Regular,Consolas,'Liberation Mono',monospace" font-size="9" fill="#bbb">Jun</text><line x1="818.9" y1="205" x2="818.9" y2="209" stroke="#fff" stroke-opacity=".5"/><text x="818.9" y="220" text-anchor="middle" font-family="SFMono-Regular,Consolas,'Liberation Mono',monospace" font-size="9" fill="#bbb">Jul</text><line x1="842.0" y1="205" x2="842.0" y2="209" stroke="#fff" stroke-opacity=".5"/><text x="842.0" y="220" text-anchor="middle" font-family="SFMono-Regular,Consolas,'Liberation Mono',monospace" font-size="9" fill="#bbb">Aug</text><line x1="865.1" y1="205" x2="865.1" y2="209" stroke="#fff" stroke-opacity=".5"/><text x="865.1" y="220" text-anchor="middle" font-family="SFMono-Regular,Consolas,'Liberation Mono',monospace" font-size="9" fill="#bbb">Sep</text><path transform="translate(848.7,65.0)" d="M0,-3.4Q0,0 3.4,0Q0,0 0,3.4Q0,0 -3.4,0Q0,0 0,-3.4Z" fill="#fff"/><text x="848.7" y="56.0" text-anchor="middle" font-family="Impact,'Arial Black','Helvetica Neue',sans-serif" font-style="italic" font-size="13" fill="#fff">30</text><circle cx="886.0" cy="83.7" r="4.5" fill="none" stroke="#fff" stroke-width="1.1"/><text x="611" y="240" font-family="'Segoe UI','Helvetica Neue',Arial,sans-serif" font-size="8.5" fill="#bbb">26/30 active days now · peaked 30/30 in Aug</text><text x="255" y="242" text-anchor="end" font-family="SFMono-Regular,Consolas,'Liberation Mono',monospace" font-size="8.5" fill="#8c8c88">UPDATED 2026-09-29</text></svg>