<svg xmlns="http://www.w3.org/2000/svg" width="900" height="250" viewBox="0 0 900 250" role="img" aria-label="Active days, a monthly skyline of active days, and a rolling 30-day pulse of active-day rate through the year — now 26 of 30, peaked at 30 of 30 in Aug"><title>Active days, a monthly skyline of active days, and a rolling 30-day pulse of active-day rate through the year — now 26 of 30, peaked at 30 of 30 in Aug</title><defs>
<pattern id="tone" width="5" height="5" patternUnits="userSpaceOnUse" patternTransform="rotate(30)"><circle cx="2.5" cy="2.5" r="1" fill="#0d0d0d" fill-opacity=".22"/></pattern>
<pattern id="nightTone" width="5" height="5" patternUnits="userSpaceOnUse" patternTransform="rotate(30)"><circle cx="2.5" cy="2.5" r="1" fill="#fff" fill-opacity=".13"/></pattern>
</defs><rect x="1.5" y="1.5" width="262" height="247" fill="#fbfbf8" stroke="#0d0d0d" stroke-width="3"/><polygon points="263,248 120,248 263,160" fill="url(#tone)" opacity=".5"/><line x1="132" y1="10" x2="132" y2="240" stroke="#0d0d0d" stroke-width="1.5"/><line x1="10" y1="125.0" x2="255" y2="125.0" stroke="#0d0d0d" stroke-width="1.5"/><text x="18" y="72.0" font-family="Impact,'Arial Black','Helvetica Neue',sans-serif" font-size="50" font-style="italic" fill="#d6d6d1">149</text><text x="16" y="69.0" font-family="Impact,'Arial Black','Helvetica Neue',sans-serif" font-size="50" font-style="italic" fill="#0d0d0d">149</text><text x="16" y="92.0" font-family="SFMono-Regular,Consolas,'Liberation Mono',monospace" font-size="10.5" font-weight="700" letter-spacing="1.5" fill="#0d0d0d">ACTIVE DAYS</text><text x="16" y="108.0" font-family="'Segoe UI','Helvetica Neue',Arial,sans-serif" font-size="10.5" fill="#8c8c88">last 12 months</text><text x="140" y="72.0" font-family="Impact,'Arial Black','Helvetica Neue',sans-serif" font-size="50" font-style="italic" fill="#d6d6d1">44</text><text x="138" y="69.0" font-family="Impact,'Arial Black','Helvetica Neue',sans-serif" font-size="50" font-style="italic" fill="#0d0d0d">44</text><text x="138" y="92.0" font-family="SFMono-Regular,Consolas,'Liberation Mono',monospace" font-size="10.5" font-weight="700" letter-spacing="1.5" fill="#0d0d0d">LONGEST STREAK</text><text x="138" y="108.0" font-family="'Segoe UI','Helvetica Neue',Arial,sans-serif" font-size="10.5" fill="#8c8c88">days, ended 10 Aug</text><text x="18" y="195.0" font-family="Impact,'Arial Black','Helvetica Neue',sans-serif" font-size="50" font-style="italic" fill="#d6d6d1">4</text><text x="16" y="192.0" font-family="Impact,'Arial Black','Helvetica Neue',sans-serif" font-size="50" font-style="italic" fill="#0d0d0d">4</text><text x="16" y="215.0" font-family="SFMono-Regular,Consolas,'Liberation Mono',monospace" font-size="10.5" font-weight="700" letter-spacing="1.5" fill="#0d0d0d">CURRENT STREAK</text><text x="16" y="231.0" font-family="'Segoe UI','Helvetica Neue',Arial,sans-serif" font-size="10.5" fill="#8c8c88">days in a row</text><text x="140" y="195.0" font-family="Impact,'Arial Black','Helvetica Neue',sans-serif" font-size="50" font-style="italic" fill="#d6d6d1">36</text><text x="138" y="192.0" font-family="Impact,'Arial Black','Helvetica Neue',sans-serif" font-size="50" font-style="italic" fill="#0d0d0d">36</text><text x="138" y="215.0" font-family="SFMono-Regular,Consolas,'Liberation Mono',monospace" font-size="10.5" font-weight="700" letter-spacing="1.5" fill="#0d0d0d">ACTIVE WEEKS</text><text x="138" y="231.0" font-family="'Segoe UI','Helvetica Neue',Arial,sans-serif" font-size="10.5" fill="#8c8c88">of 54</text><rect x="271" y="1.5" width="318" height="247" fill="#242424" stroke="#0d0d0d" stroke-width="3"/><rect x="271" y="1.5" width="318" height="247" fill="url(#nightTone)"/><text x="285" y="24" font-family="SFMono-Regular,Consolas,'Liberation Mono',monospace" font-size="10.5" letter-spacing="1.5" fill="#fff">ACTIVE DAYS / MONTH</text><rect x="283" y="212" width="20" height="10" fill="#000" stroke="#fff" stroke-width="1.5"/><text x="293.0" y="206" text-anchor="middle" font-family="Impact,'Arial Black','Helvetica Neue',sans-serif" font-size="12" font-style="italic" fill="#fff">0</text><text x="293.0" y="237" text-anchor="middle" font-family="SFMono-Regular,Consolas,'Liberation Mono',monospace" font-size="9" fill="#bbb">Oct</text><rect x="308" y="212" width="20" height="10" fill="#000" stroke="#fff" stroke-width="1.5"/><text x="318.0" y="206" text-anchor="middle" font-family="Impact,'Arial Black','Helvetica Neue',sans-serif" font-size="12" font-style="italic" fill="#fff">0</text><text x="318.0" y="237" text-anchor="middle" font-family="SFMono-Regular,Consolas,'Liberation Mono',monospace" font-size="9" fill="#bbb">Nov</text><rect x="333" y="212" width="20" height="10" fill="#000" stroke="#fff" stroke-width="1.5"/><text x="343.0" y="206" text-anchor="middle" font-family="Impact,'Arial Black','Helvetica Neue',sans-serif" font-size="12" font-style="italic" fill="#fff">1</text><text x="343.0" y="237" text-anchor="middle" font-family="SFMono-Regular,Consolas,'Liberation Mono',monospace" font-size="9" fill="#bbb">Dec</text><rect x="358" y="207" width="20" height="15" fill="#000" stroke="#fff" stroke-width="1.5"/><rect x="362" y="213" width="4" height="5.5" fill="#fff" opacity=".9"/><text x="368.0" y="201" text-anchor="middle" font-family="Impact,'Arial Black','Helvetica Neue',sans-serif" font-size="12" font-style="italic" fill="#fff">3</text><text x="368.0" y="237" text-anchor="middle" font-family="SFMono-Regular,Consolas,'Liberation Mono',monospace" font-size="9" fill="#bbb">Jan</text><rect x="383" y="193" width="20" height="29" fill="#000" stroke="#fff" stroke-width="1.5"/><text x="393.0" y="187" text-anchor="middle" font-family="Impact,'Arial Black','Helvetica Neue',sans-serif" font-size="12" font-style="italic" fill="#fff">6</text><text x="393.0" y="237" text-anchor="middle" font-family="SFMono-Regular,Consolas,'Liberation Mono',monospace" font-size="9" fill="#bbb">Feb</text><rect x="408" y="178" width="20" height="44" fill="#000" stroke="#fff" stroke-width="1.5"/><rect x="412" y="184" width="4" height="5.5" fill="#fff" opacity=".9"/><rect x="412" y="195" width="4" height="5.5" fill="#fff" opacity=".9"/><rect x="420" y="184" width="4" height="5.5" fill="#fff" opacity=".9"/><rect x="420" y="206" width="4" height="5.5" fill="#fff" opacity=".9"/><text x="418.0" y="172" text-anchor="middle" font-family="Impact,'Arial Black','Helvetica Neue',sans-serif" font-size="12" font-style="italic" fill="#fff">9</text><text x="418.0" y="237" text-anchor="middle" font-family="SFMono-Regular,Consolas,'Liberation Mono',monospace" font-size="9" fill="#bbb">Mar</text><rect x="433" y="135" width="20" height="87" fill="#000" stroke="#fff" stroke-width="1.5"/><rect x="437" y="141" width="4" height="5.5" fill="#fff" opacity=".9"/><rect x="437" y="152" width="4" height="5.5" fill="#fff" opacity=".9"/><rect x="437" y="163" width="4" height="5.5" fill="#fff" opacity=".9"/><rect x="437" y="174" width="4" height="5.5" fill="#fff" opacity=".9"/><rect x="437" y="185" width="4" height="5.5" fill="#fff" opacity=".9"/><rect x="437" y="196" width="4" height="5.5" fill="#fff" opacity=".9"/><rect x="437" y="207" width="4" height="5.5" fill="#fff" opacity=".9"/><rect x="445" y="163" width="4" height="5.5" fill="#fff" opacity=".9"/><rect x="445" y="185" width="4" height="5.5" fill="#fff" opacity=".9"/><rect x="445" y="196" width="4" height="5.5" fill="#fff" opacity=".9"/><rect x="445" y="207" width="4" height="5.5" fill="#fff" opacity=".9"/><text x="443.0" y="129" text-anchor="middle" font-family="Impact,'Arial Black','Helvetica Neue',sans-serif" font-size="12" font-style="italic" fill="#fff">18</text><text x="443.0" y="237" text-anchor="middle" font-family="SFMono-Regular,Consolas,'Liberation Mono',monospace" font-size="9" fill="#bbb">Apr</text><rect x="458" y="164" width="20" height="58" fill="#000" stroke="#fff" stroke-width="1.5"/><rect x="462" y="170" width="4" height="5.5" fill="#fff" opacity=".9"/><rect x="462" y="192" width="4" height="5.5" fill="#fff" opacity=".9"/><rect x="462" y="203" width="4" height="5.5" fill="#fff" opacity=".9"/><rect x="470" y="181" width="4" height="5.5" fill="#fff" opacity=".9"/><rect x="470" y="203" width="4" height="5.5" fill="#fff" opacity=".9"/><rect x="470" y="214" width="4" height="5.5" fill="#fff" opacity=".9"/><text x="468.0" y="158" text-anchor="middle" font-family="Impact,'Arial Black','Helvetica Neue',sans-serif" font-size="12" font-style="italic" fill="#fff">12</text><text x="468.0" y="237" text-anchor="middle" font-family="SFMono-Regular,Consolas,'Liberation Mono',monospace" font-size="9" fill="#bbb">May</text><rect x="483" y="111" width="20" height="111" fill="#000" stroke="#fff" stroke-width="1.5"/><rect x="487" y="117" width="4" height="5.5" fill="#fff" opacity=".9"/><rect x="487" y="139" width="4" height="5.5" fill="#fff" opacity=".9"/><rect x="487" y="172" width="4" height="5.5" fill="#fff" opacity=".9"/><rect x="487" y="183" width="4" height="5.5" fill="#fff" opacity=".9"/><rect x="487" y="194" width="4" height="5.5" fill="#fff" opacity=".9"/><rect x="487" y="205" width="4" height="5.5" fill="#fff" opacity=".9"/><rect x="487" y="216" width="4" height="5.5" fill="#fff" opacity=".9"/><rect x="495" y="117" width="4" height="5.5" fill="#fff" opacity=".9"/><rect x="495" y="128" width="4" height="5.5" fill="#fff" opacity=".9"/><rect x="495" y="139" width="4" height="5.5" fill="#fff" opacity=".9"/><rect x="495" y="150" width="4" height="5.5" fill="#fff" opacity=".9"/><rect x="495" y="161" width="4" height="5.5" fill="#fff" opacity=".9"/><rect x="495" y="172" width="4" height="5.5" fill="#fff" opacity=".9"/><rect x="495" y="194" width="4" height="5.5" fill="#fff" opacity=".9"/><rect x="495" y="205" width="4" height="5.5" fill="#fff" opacity=".9"/><rect x="495" y="216" width="4" height="5.5" fill="#fff" opacity=".9"/><text x="493.0" y="105" text-anchor="middle" font-family="Impact,'Arial Black','Helvetica Neue',sans-serif" font-size="12" font-style="italic" fill="#fff">23</text><text x="493.0" y="237" text-anchor="middle" font-family="SFMono-Regular,Consolas,'Liberation Mono',monospace" font-size="9" fill="#bbb">Jun</text><rect x="508" y="72" width="20" height="150" fill="#000" stroke="#fff" stroke-width="1.5"/><rect x="512" y="78" width="4" height="5.5" fill="#fff" opacity=".9"/><rect x="512" y="89" width="4" height="5.5" fill="#fff" opacity=".9"/><rect x="512" y="111" width="4" height="5.5" fill="#fff" opacity=".9"/><rect x="512" y="144" width="4" height="5.5" fill="#fff" opacity=".9"/><rect x="512" y="166" width="4" height="5.5" fill="#fff" opacity=".9"/><rect x="512" y="177" width="4" height="5.5" fill="#fff" opacity=".9"/><rect x="512" y="188" width="4" height="5.5" fill="#fff" opacity=".9"/><rect x="512" y="199" width="4" height="5.5" fill="#fff" opacity=".9"/><rect x="512" y="210" width="4" height="5.5" fill="#fff" opacity=".9"/><rect x="520" y="89" width="4" height="5.5" fill="#fff" opacity=".9"/><rect x="520" y="133" width="4" height="5.5" fill="#fff" opacity=".9"/><rect x="520" y="144" width="4" height="5.5" fill="#fff" opacity=".9"/><rect x="520" y="155" width="4" height="5.5" fill="#fff" opacity=".9"/><rect x="520" y="177" width="4" height="5.5" fill="#fff" opacity=".9"/><text x="518.0" y="66" text-anchor="middle" font-family="Impact,'Arial Black','Helvetica Neue',sans-serif" font-size="12" font-style="italic" fill="#fff">31</text><text x="518.0" y="237" text-anchor="middle" font-family="SFMono-Regular,Consolas,'Liberation Mono',monospace" font-size="9" fill="#bbb">Jul</text><rect x="533" y="91" width="20" height="131" fill="#000" stroke="#fff" stroke-width="1.5"/><rect x="537" y="97" width="4" height="5.5" fill="#fff" opacity=".9"/><rect x="537" y="119" width="4" height="5.5" fill="#fff" opacity=".9"/><rect x="537" y="130" width="4" height="5.5" fill="#fff" opacity=".9"/><rect x="537" y="141" width="4" height="5.5" fill="#fff" opacity=".9"/><rect x="537" y="163" width="4" height="5.5" fill="#fff" opacity=".9"/><rect x="537" y="185" width="4" height="5.5" fill="#fff" opacity=".9"/><rect x="537" y="196" width="4" height="5.5" fill="#fff" opacity=".9"/><rect x="537" y="207" width="4" height="5.5" fill="#fff" opacity=".9"/><rect x="545" y="97" width="4" height="5.5" fill="#fff" opacity=".9"/><rect x="545" y="108" width="4" height="5.5" fill="#fff" opacity=".9"/><rect x="545" y="119" width="4" height="5.5" fill="#fff" opacity=".9"/><rect x="545" y="130" width="4" height="5.5" fill="#fff" opacity=".9"/><rect x="545" y="152" width="4" height="5.5" fill="#fff" opacity=".9"/><rect x="545" y="163" width="4" height="5.5" fill="#fff" opacity=".9"/><rect x="545" y="185" width="4" height="5.5" fill="#fff" opacity=".9"/><rect x="545" y="196" width="4" height="5.5" fill="#fff" opacity=".9"/><rect x="545" y="207" width="4" height="5.5" fill="#fff" opacity=".9"/><text x="543.0" y="85" text-anchor="middle" font-family="Impact,'Arial Black','Helvetica Neue',sans-serif" font-size="12" font-style="italic" fill="#fff">27</text><text x="543.0" y="237" text-anchor="middle" font-family="SFMono-Regular,Consolas,'Liberation Mono',monospace" font-size="9" fill="#bbb">Aug</text><rect x="558" y="135" width="20" height="87" fill="#000" stroke="#fff" stroke-width="1.5" stroke-dasharray="3 2"/><rect x="562" y="141" width="4" height="5.5" fill="#fff" opacity=".9"/><rect x="562" y="163" width="4" height="5.5" fill="#fff" opacity=".9"/><rect x="562" y="174" width="4" height="5.5" fill="#fff" opacity=".9"/><rect x="562" y="185" width="4" height="5.5" fill="#fff" opacity=".9"/><rect x="562" y="207" width="4" height="5.5" fill="#fff" opacity=".9"/><rect x="570" y="141" width="4" height="5.5" fill="#fff" opacity=".9"/><rect x="570" y="163" width="4" height="5.5" fill="#fff" opacity=".9"/><rect x="570" y="196" width="4" height="5.5" fill="#fff" opacity=".9"/><text x="568.0" y="129" text-anchor="middle" font-family="Impact,'Arial Black','Helvetica Neue',sans-serif" font-size="12" font-style="italic" fill="#fff">18</text><text x="568.0" y="237" text-anchor="middle" font-family="SFMono-Regular,Consolas,'Liberation Mono',monospace" font-size="9" fill="#bbb">Sep</text><line x1="279" y1="222" x2="581" y2="222" stroke="#fff" stroke-opacity=".5"/><rect x="597" y="1.5" width="301.5" height="247" fill="#242424" stroke="#0d0d0d" stroke-width="3"/><rect x="597" y="1.5" width="301.5" height="247" fill="url(#nightTone)"/><text x="611" y="24" font-family="SFMono-Regular,Consolas,'Liberation Mono',monospace" font-size="10.5" letter-spacing="1.5" fill="#fff">PULSE OF THE YEAR</text><line x1="607" y1="205" x2="892" y2="205" stroke="#fff" stroke-opacity=".5"/><line x1="607" y1="124.5" x2="892" y2="124.5" stroke="#fff" stroke-opacity=".12"/><polygon points="613,205 613.0,205.0 613.7,205.0 614.5,200.3 615.2,200.3 616.0,200.3 616.7,200.3 617.5,200.3 618.2,200.3 619.0,200.3 619.7,200.3 620.5,200.3 621.2,200.3 622.0,200.3 622.7,200.3 623.5,200.3 624.2,200.3 625.0,200.3 625.7,200.3 626.5,200.3 627.2,200.3 628.0,200.3 628.7,200.3 629.5,200.3 630.2,200.3 631.0,200.3 631.7,200.3 632.4,200.3 633.2,200.3 633.9,200.3 634.7,200.3 635.4,200.3 636.2,200.3 636.9,205.0 637.7,205.0 638.4,205.0 639.2,205.0 639.9,205.0 640.7,205.0 641.4,205.0 642.2,205.0 642.9,205.0 643.7,205.0 644.4,205.0 645.2,205.0 645.9,205.0 646.7,205.0 647.4,205.0 648.2,205.0 648.9,205.0 649.6,205.0 650.4,205.0 651.1,205.0 651.9,205.0 652.6,205.0 653.4,205.0 654.1,205.0 654.9,205.0 655.6,205.0 656.4,205.0 657.1,205.0 657.9,205.0 658.6,205.0 659.4,205.0 660.1,205.0 660.9,205.0 661.6,205.0 662.4,205.0 663.1,205.0 663.9,205.0 664.6,205.0 665.4,205.0 666.1,205.0 666.9,205.0 667.6,205.0 668.3,205.0 669.1,205.0 669.8,205.0 670.6,205.0 671.3,205.0 672.1,205.0 672.8,205.0 673.6,205.0 674.3,205.0 675.1,205.0 675.8,205.0 676.6,205.0 677.3,205.0 678.1,205.0 678.8,205.0 679.6,205.0 680.3,205.0 681.1,205.0 681.8,205.0 682.6,200.3 683.3,200.3 684.1,200.3 684.8,200.3 685.6,200.3 686.3,200.3 687.0,200.3 687.8,200.3 688.5,200.3 689.3,200.3 690.0,200.3 690.8,195.7 691.5,191.0 692.3,191.0 693.0,191.0 693.8,191.0 694.5,191.0 695.3,191.0 696.0,191.0 696.8,191.0 697.5,191.0 698.3,191.0 699.0,191.0 699.8,191.0 700.5,191.0 701.3,191.0 702.0,191.0 702.8,186.3 703.5,186.3 704.2,186.3 705.0,191.0 705.7,191.0 706.5,191.0 707.2,191.0 708.0,191.0 708.7,191.0 709.5,191.0 710.2,191.0 711.0,191.0 711.7,191.0 712.5,191.0 713.2,195.7 714.0,200.3 714.7,195.7 715.5,195.7 716.2,191.0 717.0,186.3 717.7,181.7 718.5,181.7 719.2,181.7 720.0,181.7 720.7,181.7 721.5,181.7 722.2,177.0 722.9,177.0 723.7,177.0 724.4,177.0 725.2,177.0 725.9,177.0 726.7,177.0 727.4,177.0 728.2,177.0 728.9,177.0 729.7,177.0 730.4,177.0 731.2,177.0 731.9,177.0 732.7,177.0 733.4,177.0 734.2,177.0 734.9,177.0 735.7,177.0 736.4,177.0 737.2,177.0 737.9,172.3 738.7,177.0 739.4,177.0 740.2,181.7 740.9,177.0 741.6,177.0 742.4,177.0 743.1,177.0 743.9,172.3 744.6,177.0 745.4,172.3 746.1,172.3 746.9,172.3 747.6,177.0 748.4,177.0 749.1,177.0 749.9,177.0 750.6,177.0 751.4,172.3 752.1,172.3 752.9,172.3 753.6,172.3 754.4,172.3 755.1,167.7 755.9,163.0 756.6,163.0 757.4,158.3 758.1,153.7 758.8,149.0 759.6,149.0 760.3,149.0 761.1,144.3 761.8,144.3 762.6,144.3 763.3,149.0 764.1,144.3 764.8,139.7 765.6,139.7 766.3,139.7 767.1,135.0 767.8,135.0 768.6,130.3 769.3,130.3 770.1,125.7 770.8,125.7 771.6,125.7 772.3,121.0 773.1,116.3 773.8,116.3 774.6,116.3 775.3,116.3 776.1,111.7 776.8,111.7 777.5,116.3 778.3,121.0 779.0,121.0 779.8,125.7 780.5,130.3 781.3,135.0 782.0,139.7 782.8,144.3 783.5,149.0 784.3,153.7 785.0,153.7 785.8,153.7 786.5,158.3 787.3,163.0 788.0,163.0 788.8,163.0 789.5,167.7 790.3,172.3 791.0,177.0 791.8,177.0 792.5,181.7 793.3,177.0 794.0,177.0 794.8,177.0 795.5,177.0 796.2,177.0 797.0,172.3 797.7,167.7 798.5,167.7 799.2,163.0 800.0,158.3 800.7,153.7 801.5,149.0 802.2,144.3 803.0,139.7 803.7,135.0 804.5,130.3 805.2,125.7 806.0,121.0 806.7,116.3 807.5,111.7 808.2,107.0 809.0,102.3 809.7,102.3 810.5,97.7 811.2,97.7 812.0,93.0 812.7,88.3 813.4,83.7 814.2,83.7 814.9,83.7 815.7,83.7 816.4,79.0 817.2,79.0 817.9,79.0 818.7,83.7 819.4,83.7 820.2,88.3 820.9,93.0 821.7,97.7 822.4,97.7 823.2,97.7 823.9,97.7 824.7,97.7 825.4,97.7 826.2,97.7 826.9,97.7 827.7,97.7 828.4,97.7 829.2,97.7 829.9,97.7 830.7,97.7 831.4,97.7 832.1,93.0 832.9,93.0 833.6,93.0 834.4,93.0 835.1,93.0 835.9,93.0 836.6,88.3 837.4,83.7 838.1,83.7 838.9,83.7 839.6,83.7 840.4,83.7 841.1,79.0 841.9,79.0 842.6,74.3 843.4,69.7 844.1,65.0 844.9,65.0 845.6,65.0 846.4,65.0 847.1,65.0 847.9,65.0 848.6,65.0 849.4,65.0 850.1,65.0 850.8,65.0 851.6,65.0 852.3,65.0 853.1,65.0 853.8,65.0 854.6,65.0 855.3,69.7 856.1,69.7 856.8,69.7 857.6,74.3 858.3,74.3 859.1,74.3 859.8,74.3 860.6,74.3 861.3,74.3 862.1,74.3 862.8,74.3 863.6,79.0 864.3,79.0 865.1,79.0 865.8,79.0 866.6,79.0 867.3,79.0 868.0,79.0 868.8,79.0 869.5,83.7 870.3,83.7 871.0,83.7 871.8,83.7 872.5,88.3 873.3,88.3 874.0,88.3 874.8,88.3 875.5,93.0 876.3,93.0 877.0,93.0 877.8,88.3 878.5,88.3 879.3,88.3 880.0,83.7 880.8,83.7 881.5,83.7 882.3,83.7 883.0,88.3 883.8,88.3 884.5,88.3 885.3,88.3 886.0,83.7 886,205" fill="#fff" fill-opacity=".08"/><polyline points="613.0,205.0 613.7,205.0 614.5,200.3 615.2,200.3 616.0,200.3 616.7,200.3 617.5,200.3 618.2,200.3 619.0,200.3 619.7,200.3 620.5,200.3 621.2,200.3 622.0,200.3 622.7,200.3 623.5,200.3 624.2,200.3 625.0,200.3 625.7,200.3 626.5,200.3 627.2,200.3 628.0,200.3 628.7,200.3 629.5,200.3 630.2,200.3 631.0,200.3 631.7,200.3 632.4,200.3 633.2,200.3 633.9,200.3 634.7,200.3 635.4,200.3 636.2,200.3 636.9,205.0 637.7,205.0 638.4,205.0 639.2,205.0 639.9,205.0 640.7,205.0 641.4,205.0 642.2,205.0 642.9,205.0 643.7,205.0 644.4,205.0 645.2,205.0 645.9,205.0 646.7,205.0 647.4,205.0 648.2,205.0 648.9,205.0 649.6,205.0 650.4,205.0 651.1,205.0 651.9,205.0 652.6,205.0 653.4,205.0 654.1,205.0 654.9,205.0 655.6,205.0 656.4,205.0 657.1,205.0 657.9,205.0 658.6,205.0 659.4,205.0 660.1,205.0 660.9,205.0 661.6,205.0 662.4,205.0 663.1,205.0 663.9,205.0 664.6,205.0 665.4,205.0 666.1,205.0 666.9,205.0 667.6,205.0 668.3,205.0 669.1,205.0 669.8,205.0 670.6,205.0 671.3,205.0 672.1,205.0 672.8,205.0 673.6,205.0 674.3,205.0 675.1,205.0 675.8,205.0 676.6,205.0 677.3,205.0 678.1,205.0 678.8,205.0 679.6,205.0 680.3,205.0 681.1,205.0 681.8,205.0 682.6,200.3 683.3,200.3 684.1,200.3 684.8,200.3 685.6,200.3 686.3,200.3 687.0,200.3 687.8,200.3 688.5,200.3 689.3,200.3 690.0,200.3 690.8,195.7 691.5,191.0 692.3,191.0 693.0,191.0 693.8,191.0 694.5,191.0 695.3,191.0 696.0,191.0 696.8,191.0 697.5,191.0 698.3,191.0 699.0,191.0 699.8,191.0 700.5,191.0 701.3,191.0 702.0,191.0 702.8,186.3 703.5,186.3 704.2,186.3 705.0,191.0 705.7,191.0 706.5,191.0 707.2,191.0 708.0,191.0 708.7,191.0 709.5,191.0 710.2,191.0 711.0,191.0 711.7,191.0 712.5,191.0 713.2,195.7 714.0,200.3 714.7,195.7 715.5,195.7 716.2,191.0 717.0,186.3 717.7,181.7 718.5,181.7 719.2,181.7 720.0,181.7 720.7,181.7 721.5,181.7 722.2,177.0 722.9,177.0 723.7,177.0 724.4,177.0 725.2,177.0 725.9,177.0 726.7,177.0 727.4,177.0 728.2,177.0 728.9,177.0 729.7,177.0 730.4,177.0 731.2,177.0 731.9,177.0 732.7,177.0 733.4,177.0 734.2,177.0 734.9,177.0 735.7,177.0 736.4,177.0 737.2,177.0 737.9,172.3 738.7,177.0 739.4,177.0 740.2,181.7 740.9,177.0 741.6,177.0 742.4,177.0 743.1,177.0 743.9,172.3 744.6,177.0 745.4,172.3 746.1,172.3 746.9,172.3 747.6,177.0 748.4,177.0 749.1,177.0 749.9,177.0 750.6,177.0 751.4,172.3 752.1,172.3 752.9,172.3 753.6,172.3 754.4,172.3 755.1,167.7 755.9,163.0 756.6,163.0 757.4,158.3 758.1,153.7 758.8,149.0 759.6,149.0 760.3,149.0 761.1,144.3 761.8,144.3 762.6,144.3 763.3,149.0 764.1,144.3 764.8,139.7 765.6,139.7 766.3,139.7 767.1,135.0 767.8,135.0 768.6,130.3 769.3,130.3 770.1,125.7 770.8,125.7 771.6,125.7 772.3,121.0 773.1,116.3 773.8,116.3 774.6,116.3 775.3,116.3 776.1,111.7 776.8,111.7 777.5,116.3 778.3,121.0 779.0,121.0 779.8,125.7 780.5,130.3 781.3,135.0 782.0,139.7 782.8,144.3 783.5,149.0 784.3,153.7 785.0,153.7 785.8,153.7 786.5,158.3 787.3,163.0 788.0,163.0 788.8,163.0 789.5,167.7 790.3,172.3 791.0,177.0 791.8,177.0 792.5,181.7 793.3,177.0 794.0,177.0 794.8,177.0 795.5,177.0 796.2,177.0 797.0,172.3 797.7,167.7 798.5,167.7 799.2,163.0 800.0,158.3 800.7,153.7 801.5,149.0 802.2,144.3 803.0,139.7 803.7,135.0 804.5,130.3 805.2,125.7 806.0,121.0 806.7,116.3 807.5,111.7 808.2,107.0 809.0,102.3 809.7,102.3 810.5,97.7 811.2,97.7 812.0,93.0 812.7,88.3 813.4,83.7 814.2,83.7 814.9,83.7 815.7,83.7 816.4,79.0 817.2,79.0 817.9,79.0 818.7,83.7 819.4,83.7 820.2,88.3 820.9,93.0 821.7,97.7 822.4,97.7 823.2,97.7 823.9,97.7 824.7,97.7 825.4,97.7 826.2,97.7 826.9,97.7 827.7,97.7 828.4,97.7 829.2,97.7 829.9,97.7 830.7,97.7 831.4,97.7 832.1,93.0 832.9,93.0 833.6,93.0 834.4,93.0 835.1,93.0 835.9,93.0 836.6,88.3 837.4,83.7 838.1,83.7 838.9,83.7 839.6,83.7 840.4,83.7 841.1,79.0 841.9,79.0 842.6,74.3 843.4,69.7 844.1,65.0 844.9,65.0 845.6,65.0 846.4,65.0 847.1,65.0 847.9,65.0 848.6,65.0 849.4,65.0 850.1,65.0 850.8,65.0 851.6,65.0 852.3,65.0 853.1,65.0 853.8,65.0 854.6,65.0 855.3,69.7 856.1,69.7 856.8,69.7 857.6,74.3 858.3,74.3 859.1,74.3 859.8,74.3 860.6,74.3 861.3,74.3 862.1,74.3 862.8,74.3 863.6,79.0 864.3,79.0 865.1,79.0 865.8,79.0 866.6,79.0 867.3,79.0 868.0,79.0 868.8,79.0 869.5,83.7 870.3,83.7 871.0,83.7 871.8,83.7 872.5,88.3 873.3,88.3 874.0,88.3 874.8,88.3 875.5,93.0 876.3,93.0 877.0,93.0 877.8,88.3 878.5,88.3 879.3,88.3 880.0,83.7 880.8,83.7 881.5,83.7 882.3,83.7 883.0,88.3 883.8,88.3 884.5,88.3 885.3,88.3 886.0,83.7" fill="none" stroke="#fff" stroke-width="1.6" stroke-linejoin="round" stroke-linecap="round"/><line x1="620.5" y1="205" x2="620.5" y2="209" stroke="#fff" stroke-opacity=".5"/><text x="620.5" y="220" text-anchor="middle" font-family="SFMono-Regular,Consolas,'Liberation Mono',monospace" font-size="9" fill="#bbb">Oct</text><line x1="643.7" y1="205" x2="643.7" y2="209" stroke="#fff" stroke-opacity=".5"/><text x="643.7" y="220" text-anchor="middle" font-family="SFMono-Regular,Consolas,'Liberation Mono',monospace" font-size="9" fill="#bbb">Nov</text><line x1="666.1" y1="205" x2="666.1" y2="209" stroke="#fff" stroke-opacity=".5"/><text x="666.1" y="220" text-anchor="middle" font-family="SFMono-Regular,Consolas,'Liberation Mono',monospace" font-size="9" fill="#bbb">Dec</text><line x1="689.3" y1="205" x2="689.3" y2="209" stroke="#fff" stroke-opacity=".5"/><text x="689.3" y="220" text-anchor="middle" font-family="SFMono-Regular,Consolas,'Liberation Mono',monospace" font-size="9" fill="#bbb">Jan</text><line x1="712.5" y1="205" x2="712.5" y2="209" stroke="#fff" stroke-opacity=".5"/><text x="712.5" y="220" text-anchor="middle" font-family="SFMono-Regular,Consolas,'Liberation Mono',monospace" font-size="9" fill="#bbb">Feb</text><line x1="733.4" y1="205" x2="733.4" y2="209" stroke="#fff" stroke-opacity=".5"/><text x="733.4" y="220" text-anchor="middle" font-family="SFMono-Regular,Consolas,'Liberation Mono',monospace" font-size="9" fill="#bbb">Mar</text><line x1="756.6" y1="205" x2="756.6" y2="209" stroke="#fff" stroke-opacity=".5"/><text x="756.6" y="220" text-anchor="middle" font-family="SFMono-Regular,Consolas,'Liberation Mono',monospace" font-size="9" fill="#bbb">Apr</text><line x1="779.0" y1="205" x2="779.0" y2="209" stroke="#fff" stroke-opacity=".5"/><text x="779.0" y="220" text-anchor="middle" font-family="SFMono-Regular,Consolas,'Liberation Mono',monospace" font-size="9" fill="#bbb">May</text><line x1="802.2" y1="205" x2="802.2" y2="209" stroke="#fff" stroke-opacity=".5"/><text x="802.2" y="220" text-anchor="middle" font-family="SFMono-Regular,Consolas,'Liberation Mono',monospace" font-size="9" fill="#bbb">Jun</text><line x1="824.7" y1="205" x2="824.7" y2="209" stroke="#fff" stroke-opacity=".5"/><text x="824.7" y="220" text-anchor="middle" font-family="SFMono-Regular,Consolas,'Liberation Mono',monospace" font-size="9" fill="#bbb">Jul</text><line x1="847.9" y1="205" x2="847.9" y2="209" stroke="#fff" stroke-opacity=".5"/><text x="847.9" y="220" text-anchor="middle" font-family="SFMono-Regular,Consolas,'Liberation Mono',monospace" font-size="9" fill="#bbb">Aug</text><line x1="871.0" y1="205" x2="871.0" y2="209" stroke="#fff" stroke-opacity=".5"/><text x="871.0" y="220" text-anchor="middle" font-family="SFMono-Regular,Consolas,'Liberation Mono',monospace" font-size="9" fill="#bbb">Sep</text><path transform="translate(854.6,65.0)" d="M0,-3.4Q0,0 3.4,0Q0,0 0,3.4Q0,0 -3.4,0Q0,0 0,-3.4Z" fill="#fff"/><text x="854.6" y="56.0" text-anchor="middle" font-family="Impact,'Arial Black','Helvetica Neue',sans-serif" font-style="italic" font-size="13" fill="#fff">30</text><circle cx="886.0" cy="83.7" r="4.5" fill="none" stroke="#fff" stroke-width="1.1"/><text x="611" y="240" font-family="'Segoe UI','Helvetica Neue',Arial,sans-serif" font-size="8.5" fill="#bbb">26/30 active days now · peaked 30/30 in Aug</text><text x="255" y="242" text-anchor="end" font-family="SFMono-Regular,Consolas,'Liberation Mono',monospace" font-size="8.5" fill="#8c8c88">UPDATED 2026-09-21</text></svg>